<svg width="22" height="22" viewBox="0 0 22 22" fill="none" xmlns="http://www.w3.org/2000/svg">
<g id="Icon" clip-path="url(#clip0_704_6416)">
<path id="Edit Icon" d="M10.0834 3.66671H3.66671C3.18048 3.66671 2.71416 3.85986 2.37034 4.20368C2.02653 4.5475 1.83337 5.01381 1.83337 5.50004V18.3334C1.83337 18.8196 2.02653 19.2859 2.37034 19.6297C2.71416 19.9736 3.18048 20.1667 3.66671 20.1667H16.5C16.9863 20.1667 17.4526 19.9736 17.7964 19.6297C18.1402 19.2859 18.3334 18.8196 18.3334 18.3334V11.9167M16.9584 2.29171C17.323 1.92704 17.8176 1.72217 18.3334 1.72217C18.8491 1.72217 19.3437 1.92704 19.7084 2.29171C20.073 2.65638 20.2779 3.15099 20.2779 3.66671C20.2779 4.18244 20.073 4.67704 19.7084 5.04171L11 13.75L7.33337 14.6667L8.25004 11L16.9584 2.29171Z" stroke="#5D3EDE" stroke-width="2" stroke-linecap="round" stroke-linejoin="round"/>
</g>
<defs>
<clipPath id="clip0_704_6416">
<rect width="22" height="22" fill="white"/>
</clipPath>
</defs>
</svg>
